<svg width="117" height="117" viewBox="0 0 117 117" fill="none" xmlns="http://www.w3.org/2000/svg">
<path d="M58.5386 106.615C34.5825 106.3 15.239 86.9562 14.9233 63.0001C15.239 39.044 34.5825 19.7005 58.5386 19.3847C82.4947 19.7005 101.838 39.044 102.154 63.0001C101.838 86.9562 82.4947 106.3 58.5386 106.615ZM58.5386 29.077C39.906 29.3223 24.8609 44.3675 24.6156 63.0001C24.8609 81.6327 39.906 96.6778 58.5386 96.9231C77.1713 96.6778 92.2164 81.6327 92.4617 63.0001C92.2164 44.3675 77.1713 29.3223 58.5386 29.077ZM63.3848 87.2308H53.6925V67.8462H34.3079V58.1539H53.6925V38.7693H63.3848V58.1539H82.7694V67.8462H63.3848V87.2308ZM98.7229 32.5081L84.1408 17.9697L90.9691 11.1027L105.556 25.6411L98.7229 32.5033V32.5081ZM18.3592 32.5081L11.4922 25.6411L25.987 11.1027L32.8443 17.9648L18.3592 32.5033V32.5081Z" fill="#2E3A59"/>
</svg>
