<svg width="117" height="117" viewBox="0 0 117 117" fill="none" xmlns="http://www.w3.org/2000/svg">
<path d="M58.149 106.615C34.1929 106.3 14.8494 86.9562 14.5336 63.0001C14.8494 39.044 34.1929 19.7005 58.149 19.3847C82.1051 19.7005 101.449 39.044 101.764 63.0001C101.449 86.9562 82.1051 106.3 58.149 106.615ZM58.149 29.077C39.5163 29.3223 24.4712 44.3675 24.2259 63.0001C24.4712 81.6327 39.5163 96.6778 58.149 96.9231C76.7816 96.6778 91.8267 81.6327 92.072 63.0001C91.8267 44.3675 76.7816 29.3223 58.149 29.077ZM82.3797 67.8462H53.3028V38.7693H62.9951V58.1539H82.3797V67.8462ZM98.3333 32.5081L83.7512 17.9697L90.5794 11.1027L105.166 25.6411L98.3333 32.5033V32.5081ZM17.9598 32.5081L11.1025 25.6411L25.5974 11.1027L32.4547 17.9697L17.9695 32.5081H17.9598Z" fill="#2E3A59"/>
</svg>
