<svg width="52" height="52" viewBox="0 0 52 52" fill="none" xmlns="http://www.w3.org/2000/svg">
<g id="Iconsax/Broken/messages1">
<path id="Vector" d="M4.3335 23.3783C4.3335 17.03 7.2585 13.585 13.0868 13.0867C13.6068 13.0217 14.1485 13 14.7118 13H28.5785C35.4902 13 38.9568 16.4667 38.9568 23.3783V32.045C38.9568 32.6083 38.9352 33.15 38.8702 33.67C38.3718 39.52 34.9268 42.4233 28.5785 42.4233H27.7118C27.1702 42.4233 26.6502 42.6833 26.3252 43.1167L23.7252 46.5833C22.5768 48.1217 20.7135 48.1217 19.5652 46.5833L16.9652 43.1167C16.7917 42.9147 16.5798 42.7494 16.3417 42.6303C16.1036 42.5113 15.8441 42.4409 15.5785 42.4233H14.7118C7.80016 42.4233 4.3335 40.7117 4.3335 32.045" stroke="white" stroke-width="1.5" stroke-miterlimit="10" stroke-linecap="round" stroke-linejoin="round"/>
<path id="Vector_2" d="M47.6231 14.7117C47.6231 7.80004 44.1564 4.33337 37.2448 4.33337H23.3781C17.0298 4.33337 13.5848 7.25837 13.0864 13.0867C13.6064 13.0217 14.1481 13 14.7114 13H28.5781C35.4898 13 38.9564 16.4667 38.9564 23.3784V32.045C38.9564 32.6084 38.9348 33.15 38.8698 33.67C44.6981 33.1717 47.6231 29.7484 47.6231 23.3784" stroke="white" stroke-width="1.5" stroke-miterlimit="10" stroke-linecap="round" stroke-linejoin="round"/>
<path id="Vector_3" d="M29.2389 28.7084H29.2606M21.6556 28.7084H21.6773M14.0723 28.7084H14.0939" stroke="white" stroke-width="2" stroke-linecap="round" stroke-linejoin="round"/>
</g>
</svg>
