<svg width="117" height="117" viewBox="0 0 117 117" fill="none" xmlns="http://www.w3.org/2000/svg">
<path d="M58.8453 106.615C32.0807 106.615 10.3838 84.9185 10.3838 58.1539C10.3838 31.3893 32.0807 9.69238 58.8453 9.69238C85.6099 9.69238 107.307 31.3893 107.307 58.1539C107.277 84.9063 85.5977 106.586 58.8453 106.615ZM58.7678 96.9231H58.8453C80.2494 96.9017 97.5864 79.5386 97.5757 58.1345C97.565 36.7305 80.2106 19.3847 58.8065 19.3847C37.4025 19.3847 20.048 36.7305 20.0373 58.1345C20.0266 79.5386 37.3637 96.9017 58.7678 96.9231ZM49.153 82.3847L29.7684 63L36.6015 56.167L49.153 68.67L81.0891 36.7339L87.9222 43.6154L49.153 82.3847Z" fill="#2E3A59"/>
</svg>
