<svg width="117" height="117" viewBox="0 0 117 117" fill="none" xmlns="http://www.w3.org/2000/svg">
<path d="M58.5387 107C31.7741 107 10.0771 85.3029 10.0771 58.5383C10.0771 31.7737 31.7741 10.0768 58.5387 10.0768C85.3032 10.0768 107 31.7737 107 58.5383C106.971 85.2907 85.291 106.97 58.5387 107ZM58.5387 19.7691C37.127 19.7691 19.7695 37.1267 19.7695 58.5383C19.7695 79.9499 37.127 97.3075 58.5387 97.3075C79.9503 97.3075 97.3079 79.9499 97.3079 58.5383C97.2838 37.1366 79.9403 19.7931 58.5387 19.7691ZM82.7694 63.3844H53.6925V34.3075H63.3848V53.6921H82.7694V63.3844Z" fill="#2E3A59"/>
</svg>
