<svg width="117" height="117" viewBox="0 0 117 117" fill="none" xmlns="http://www.w3.org/2000/svg">
<path d="M87.3829 107C76.7613 106.974 68.1281 98.4252 67.9983 87.8043V77.923H48.6137V87.7122C48.5603 98.4053 39.8579 107.035 29.1648 107C18.4717 106.964 9.82705 98.2763 9.84475 87.5832C9.86251 76.89 18.5359 68.2308 29.2291 68.2307H38.9214V48.8461H29.2291C18.5359 48.846 9.86251 40.1868 9.84475 29.4936C9.82705 18.8005 18.4717 10.1126 29.1648 10.0769C39.8579 10.0414 48.5603 18.6715 48.6137 29.3646V39.1538H67.9983V29.4615C67.9983 18.7557 76.6771 10.0769 87.3829 10.0769C98.0887 10.0769 106.768 18.7557 106.768 29.4615C106.768 40.1673 98.0887 48.8461 87.3829 48.8461H77.6906V68.2307H87.3829C98.0887 68.2307 106.768 76.9095 106.768 87.6153C106.768 98.3211 98.0887 107 87.3829 107ZM77.6906 77.923V87.6153C77.6906 92.9682 82.03 97.3076 87.3829 97.3076C92.7358 97.3076 97.0752 92.9682 97.0752 87.6153C97.0752 82.2624 92.7358 77.923 87.3829 77.923H77.6906ZM29.2291 77.923C23.8762 77.923 19.5368 82.2624 19.5368 87.6153C19.5368 92.9682 23.8762 97.3076 29.2291 97.3076C31.808 97.3351 34.2893 96.3228 36.113 94.4992C37.9366 92.6755 38.9489 90.1942 38.9214 87.6153V77.923H29.2291ZM48.6137 48.8461V68.2307H67.9983V48.8461H48.6137ZM87.3829 19.7692C84.804 19.7417 82.3227 20.754 80.4991 22.5777C78.6754 24.4013 77.6631 26.8826 77.6906 29.4615V39.1538H87.3829C89.9618 39.1813 92.4431 38.169 94.2668 36.3453C96.0904 34.5217 97.1027 32.0404 97.0752 29.4615C97.1027 26.8826 96.0904 24.4013 94.2668 22.5777C92.4431 20.754 89.9618 19.7417 87.3829 19.7692ZM29.2291 19.7692C26.6502 19.7417 24.1689 20.754 22.3453 22.5777C20.5216 24.4013 19.5093 26.8826 19.5368 29.4615C19.5093 32.0404 20.5216 34.5217 22.3453 36.3453C24.1689 38.169 26.6502 39.1813 29.2291 39.1538H38.9214V29.4615C38.9489 26.8826 37.9366 24.4013 36.113 22.5777C34.2893 20.754 31.808 19.7417 29.2291 19.7692Z" fill="#2E3A59"/>
</svg>
