<svg width="117" height="117" viewBox="0 0 117 117" fill="none" xmlns="http://www.w3.org/2000/svg">
<path d="M58.692 107C31.9274 107 10.2305 85.3029 10.2305 58.5383C10.2305 31.7737 31.9274 10.0768 58.692 10.0768C85.4565 10.0768 107.153 31.7737 107.153 58.5383C107.124 85.2907 85.4444 106.97 58.692 107ZM58.692 19.7691C37.2803 19.7691 19.9228 37.1267 19.9228 58.5383C19.9228 79.9499 37.2803 97.3075 58.692 97.3075C80.1036 97.3075 97.4612 79.9499 97.4612 58.5383C97.4372 37.1366 80.0937 19.7931 58.692 19.7691ZM78.0766 82.7691H39.3074V73.0767H78.0766V82.7691ZM41.7305 58.5383C37.7158 58.5383 34.4612 55.2838 34.4612 51.2691C34.4612 47.2544 37.7158 43.9998 41.7305 43.9998C45.7451 43.9998 48.9997 47.2544 48.9997 51.2691C48.9997 55.2838 45.7451 58.5383 41.7305 58.5383ZM75.6196 58.4704C71.6236 58.4704 68.3843 55.2311 68.3843 51.2351C68.3843 47.2392 71.6236 43.9998 75.6196 43.9998C79.6155 43.9998 82.8549 47.2392 82.8549 51.2351C82.8496 55.2289 79.6133 58.4651 75.6196 58.4704Z" fill="#2E3A59"/>
</svg>
