<svg width="117" height="117" viewBox="0 0 117 117" fill="none" xmlns="http://www.w3.org/2000/svg">
<path d="M97.6145 97.3075H20.0761C14.7232 97.3075 10.3838 92.9681 10.3838 87.6152V29.4613C10.3838 24.1084 14.7232 19.769 20.0761 19.769H97.6145C102.967 19.769 107.307 24.1084 107.307 29.4613V87.6152C107.307 92.9681 102.967 97.3075 97.6145 97.3075ZM20.0761 29.4613V87.6152H97.6145V29.4613H20.0761ZM75.8068 77.9229C69.1157 77.9229 63.6915 72.4986 63.6915 65.8075C63.6915 59.1163 69.1157 53.6921 75.8068 53.6921C82.498 53.6921 87.9222 59.1163 87.9222 65.8075C87.9222 69.0207 86.6458 72.1023 84.3737 74.3743C82.1016 76.6464 79.02 77.9229 75.8068 77.9229ZM56.4222 77.9229C49.7311 77.9229 44.3068 72.4986 44.3068 65.8075C44.3068 59.1163 49.7311 53.6921 56.4222 53.6921C59.0527 53.6942 61.6086 54.5666 63.6915 56.1733C60.6445 58.4371 58.8483 62.0092 58.8483 65.8051C58.8483 69.601 60.6445 73.173 63.6915 75.4368C61.6093 77.0452 59.0533 77.9194 56.4222 77.9229Z" fill="#2E3A59"/>
</svg>
