<svg width="117" height="118" viewBox="0 0 117 118" fill="none" xmlns="http://www.w3.org/2000/svg">
<path d="M27.3452 100.115C24.6687 100.115 22.499 97.9456 22.499 95.2691V22.5769C22.499 19.9004 24.6687 17.7306 27.3452 17.7306H58.2636C60.1059 17.7179 61.7961 18.7508 62.6252 20.3961L66.1144 27.423H90.3451C93.0216 27.423 95.1913 29.5927 95.1913 32.2692V71.0384C95.1913 73.7148 93.0216 75.8845 90.3451 75.8845H64.2244C62.3995 75.879 60.7325 74.8488 59.9113 73.2191L56.4221 66.1922H32.1913V95.2691C32.1913 97.9456 30.0216 100.115 27.3452 100.115ZM32.1913 27.423V56.4999H61.2682L66.1144 66.1922H85.499V37.1153H61.2682L56.4221 27.423H32.1913Z" fill="#2E3A59"/>
</svg>
