<svg width="117" height="117" viewBox="0 0 117 117" fill="none" xmlns="http://www.w3.org/2000/svg">
<path d="M58.5388 101.922C55.413 99.15 51.8802 96.2665 48.1438 93.1989H48.0953C34.938 82.4404 20.0264 70.2669 13.4405 55.68C11.2768 51.036 10.1301 45.9835 10.0772 40.8605C10.0628 33.831 12.8821 27.0925 17.898 22.1677C22.914 17.243 29.7031 14.5478 36.7311 14.6912C42.4526 14.7003 48.0509 16.3539 52.8591 19.455C54.9719 20.8263 56.8834 22.4851 58.5388 24.3835C60.2034 22.4925 62.1154 20.8347 64.2233 19.455C69.0294 16.3533 74.6264 14.6996 80.3464 14.6912C87.3744 14.5478 94.1636 17.243 99.1795 22.1677C104.195 27.0925 107.015 33.831 107 40.8605C106.951 45.9916 105.804 51.0529 103.637 55.7042C97.0511 70.2911 82.1444 82.4598 68.9871 93.1989L68.9386 93.2377C65.1974 96.2859 61.6694 99.1693 58.5436 101.961L58.5388 101.922ZM36.7311 24.3835C32.217 24.3271 27.863 26.0547 24.6157 29.1909C21.487 32.2642 19.7383 36.4749 19.7691 40.8605C19.8244 44.5944 20.6701 48.2744 22.2508 51.6577C25.3596 57.9514 29.5545 63.6473 34.6424 68.4835C39.4449 73.3297 44.9695 78.0207 49.7478 81.9655C51.0708 83.0559 52.4181 84.156 53.7653 85.256L54.6134 85.9491C55.9073 87.0055 57.2448 88.1007 58.5388 89.1766L58.6018 89.1184L58.6308 89.0942H58.6599L58.7035 89.0603H58.7278H58.752L58.8392 88.9876L59.0379 88.8277L59.0718 88.7986L59.1252 88.7598H59.1542L59.1978 88.721L62.4157 86.0799L63.2589 85.3869C64.6207 84.2771 65.9679 83.1771 67.2909 82.0867C72.0692 78.1419 77.5987 73.4557 82.4012 68.5853C87.4898 63.7515 91.6848 58.0571 94.7928 51.7643C96.4021 48.3516 97.2598 44.6332 97.3082 40.8605C97.3282 36.4884 95.5804 32.2939 92.4618 29.2297C89.2208 26.0793 84.8661 24.3374 80.3464 24.3835C74.8312 24.3367 69.5586 26.6485 65.8565 30.7368L58.5388 39.1692L51.2211 30.7368C47.5189 26.6485 42.2464 24.3367 36.7311 24.3835Z" fill="#2E3A59"/>
</svg>
