<svg width="117" height="117" viewBox="0 0 117 117" fill="none" xmlns="http://www.w3.org/2000/svg">
<path d="M58.3062 106.769C31.5539 106.739 9.87411 85.0594 9.84473 58.3071V57.3378C10.3775 30.706 32.3046 9.49641 58.9395 9.84981C85.5743 10.2032 106.931 31.9871 106.757 58.6237C106.583 85.2603 84.9434 106.763 58.3062 106.769ZM58.2287 97.0763H58.3062C79.7103 97.0549 97.0474 79.6918 97.0367 58.2877C97.026 36.8836 79.6715 19.5379 58.2675 19.5379C36.8634 19.5379 19.509 36.8836 19.4983 58.2877C19.4876 79.6918 36.8246 97.0549 58.2287 97.0763ZM63.1524 87.384H53.4601V77.6917H63.1524V87.384ZM63.1524 72.8455H53.4601C53.3069 66.5342 56.5914 60.637 62.0378 57.4444C65.2362 54.9923 67.9985 52.8794 67.9985 48.6148C67.9985 43.2618 63.6591 38.9225 58.3062 38.9225C52.9533 38.9225 48.6139 43.2618 48.6139 48.6148H38.9216V48.1786C38.9995 41.2531 42.7662 34.8953 48.8028 31.5001C54.8394 28.1048 62.2287 28.188 68.1874 31.7182C74.1461 35.2484 77.7688 41.6893 77.6908 48.6148C77.3438 53.8438 74.5392 58.5991 70.1308 61.4328C66.1459 63.9344 63.563 68.1584 63.1524 72.8455Z" fill="#2E3A59"/>
</svg>
