<svg width="118" height="117" viewBox="0 0 118 117" fill="none" xmlns="http://www.w3.org/2000/svg">
<path d="M58.9234 106.768C32.1589 106.768 10.4619 85.0715 10.4619 58.307C10.4619 31.5424 32.1589 9.84546 58.9234 9.84546C85.688 9.84546 107.385 31.5424 107.385 58.307C107.356 85.0594 85.6758 106.739 58.9234 106.768ZM54.0773 82.5377V92.23H63.7696V82.5377H54.0773ZM58.9234 34.0762C64.2763 34.0762 68.6157 38.4156 68.6157 43.7685C68.6328 46.3405 67.6002 48.8082 65.7565 50.6016L59.7473 56.7077C56.1196 60.3507 54.0812 65.2813 54.0773 70.4224V72.8454H63.7696C63.3929 67.6358 65.4941 62.5535 69.4396 59.1308L73.8011 54.6724C76.6995 51.7856 78.3224 47.8592 78.3081 43.7685C78.3081 33.0627 69.6293 24.3839 58.9234 24.3839C48.2176 24.3839 39.5388 33.0627 39.5388 43.7685H49.2311C49.2311 38.4156 53.5705 34.0762 58.9234 34.0762Z" fill="#2E3A59"/>
</svg>
