<svg width="117" height="117" viewBox="0 0 117 117" fill="none" xmlns="http://www.w3.org/2000/svg">
<path d="M63.5383 106.769H48.9998V92.2303H63.5383V106.769ZM63.5383 82.538H48.9998V82.5041C48.9998 74.5079 48.9998 67.6021 52.2565 62.7657C54.7901 59.5546 57.9426 56.885 61.5271 54.9149C63.1458 53.8779 64.6723 52.8941 65.9565 51.8715C71.5847 47.5152 74.1153 40.2501 72.4116 33.3399C69.7157 26.8952 62.8563 23.2385 56.003 24.5924C49.1497 25.9464 44.1962 31.937 44.1537 38.9226H29.6152C29.6152 22.8639 42.6334 9.84559 58.6921 9.84559C69.8638 9.81216 80.0803 16.1406 85.0261 26.1579C89.4686 36.3645 87.7124 48.2099 80.4998 56.6886C78.3069 59.1188 75.8455 61.2925 73.1627 63.1679C70.8152 64.7872 68.6736 66.6863 66.7852 68.8234C64.1164 72.8677 62.9661 77.7264 63.5383 82.538Z" fill="#2E3A59"/>
</svg>
