<svg width="118" height="117" viewBox="0 0 118 117" fill="none" xmlns="http://www.w3.org/2000/svg">
<path d="M83.1542 82.9227H68.6157V73.2304H83.1542C91.1836 73.2304 97.6926 66.7213 97.6926 58.6919C97.6926 50.6626 91.1836 44.1535 83.1542 44.1535H68.6157V34.4612H83.1542C96.5365 34.4612 107.385 45.3097 107.385 58.6919C107.385 72.0742 96.5365 82.9227 83.1542 82.9227ZM49.2311 82.9227H34.6927C21.3104 82.9227 10.4619 72.0742 10.4619 58.6919C10.4619 45.3097 21.3104 34.4612 34.6927 34.4612H49.2311V44.1535H34.6927C26.6633 44.1535 20.1542 50.6626 20.1542 58.6919C20.1542 66.7213 26.6633 73.2304 34.6927 73.2304H49.2311V82.9227ZM83.1542 63.5381H34.6927V53.8458H83.1542V63.5381Z" fill="#2E3A59"/>
</svg>
