<svg width="117" height="117" viewBox="0 0 117 117" fill="none" xmlns="http://www.w3.org/2000/svg">
<path d="M41.1755 100.054C31.3758 100.054 22.5409 94.151 18.7901 85.0975C15.0393 76.044 17.1111 65.6226 24.0395 58.6921L34.323 48.4086L41.1755 55.261L30.8968 65.5397C27.2237 69.2128 25.7892 74.5664 27.1336 79.584C28.4781 84.6015 32.3972 88.5206 37.4147 89.8651C42.4323 91.2095 47.7859 89.775 51.459 86.1019L61.7377 75.8232L68.5901 82.6805L58.3115 92.9592C53.7758 97.5172 47.6056 100.072 41.1755 100.054ZM44.6017 79.2495L37.7492 72.397L72.0164 38.1299L78.8688 44.9823L44.6065 79.2446L44.6017 79.2495ZM82.2999 68.9708L75.4426 62.1183L85.7213 51.8396C89.4444 48.1775 90.9173 42.7999 89.58 37.7518C88.2427 32.7036 84.3005 28.7606 79.2527 27.422C74.2048 26.0835 68.8269 27.5552 65.1639 31.2774L54.8804 41.5561L48.0279 34.7036L58.3115 24.4201C67.7861 15.0281 83.0703 15.0616 92.5037 24.495C101.937 33.9284 101.971 49.2126 92.5786 58.6872L82.2999 68.9659V68.9708Z" fill="#2E3A59"/>
</svg>
