<svg width="118" height="117" viewBox="0 0 118 117" fill="none" xmlns="http://www.w3.org/2000/svg">
<path d="M29.9999 77.9228C24.647 77.9228 20.3076 73.5834 20.3076 68.2305C20.3076 62.8776 24.647 58.5382 29.9999 58.5382C35.3528 58.5382 39.6922 62.8776 39.6922 68.2305C39.6922 70.801 38.6711 73.2663 36.8534 75.084C35.0358 76.9016 32.5705 77.9228 29.9999 77.9228ZM59.0768 68.2305C53.7239 68.2305 49.3845 63.8911 49.3845 58.5382C49.3845 53.1853 53.7239 48.8459 59.0768 48.8459C64.4297 48.8459 68.7691 53.1853 68.7691 58.5382C68.7691 61.1087 67.748 63.574 65.9303 65.3917C64.1127 67.2093 61.6474 68.2305 59.0768 68.2305ZM88.1537 58.5382C82.8008 58.5382 78.4614 54.1988 78.4614 48.8459C78.4614 43.493 82.8008 39.1536 88.1537 39.1536C93.5066 39.1536 97.846 43.493 97.846 48.8459C97.846 51.4164 96.8249 53.8817 95.0072 55.6994C93.1896 57.517 90.7243 58.5382 88.1537 58.5382Z" fill="#2E3A59"/>
</svg>
