<svg width="118" height="117" viewBox="0 0 118 117" fill="none" xmlns="http://www.w3.org/2000/svg">
<path d="M59.0764 102.308C52.9554 97.0865 47.2818 91.3626 42.1149 85.1958C34.361 75.9348 25.1533 62.1426 25.1533 48.9999C25.1465 35.2734 33.4124 22.8956 46.0939 17.6424C58.7754 12.3892 73.3728 15.2961 83.0745 25.0066C89.4543 31.358 93.0281 39.9976 92.9996 48.9999C92.9996 62.1426 83.7918 75.9348 76.0379 85.1958C70.871 91.3626 65.1974 97.0865 59.0764 102.308ZM59.0764 24.7691C45.7008 24.7852 34.8617 35.6243 34.8456 48.9999C34.8456 54.6505 37.3996 64.4349 49.5537 78.9782C52.5493 82.5549 55.7278 85.9744 59.0764 89.2229C62.4253 85.9782 65.6053 82.5637 68.6039 78.9927C80.7532 64.43 83.3071 54.6457 83.3071 48.9999C83.2911 35.6243 72.452 24.7852 59.0764 24.7691ZM59.0764 63.5383C51.047 63.5383 44.5379 57.0293 44.5379 48.9999C44.5379 40.9705 51.047 34.4614 59.0764 34.4614C67.1058 34.4614 73.6148 40.9705 73.6148 48.9999C73.6148 52.8557 72.0831 56.5536 69.3566 59.2801C66.6301 62.0066 62.9322 63.5383 59.0764 63.5383Z" fill="#2E3A59"/>
</svg>
