<svg width="117" height="117" viewBox="0 0 117 117" fill="none" xmlns="http://www.w3.org/2000/svg">
<path d="M58.6906 102.308C52.5696 97.0865 46.896 91.3626 41.7291 85.1958C33.9753 75.9348 24.7676 62.1426 24.7676 48.9999C24.7607 35.2734 33.0266 22.8956 45.7081 17.6424C58.3896 12.3892 72.9871 15.2961 82.6888 25.0066C89.0685 31.358 92.6424 39.9976 92.6139 48.9999C92.6139 62.1426 83.406 75.9348 75.6522 85.1958C70.4853 91.3626 64.8117 97.0865 58.6906 102.308ZM58.6906 34.4614C53.4966 34.4614 48.697 37.2324 46.1 41.7307C43.5029 46.2289 43.5029 51.7709 46.1 56.2691C48.697 60.7673 53.4966 63.5383 58.6906 63.5383C66.72 63.5383 73.2291 57.0293 73.2291 48.9999C73.2291 40.9705 66.72 34.4614 58.6906 34.4614Z" fill="#2E3A59"/>
</svg>
