<svg width="117" height="118" viewBox="0 0 117 118" fill="none" xmlns="http://www.w3.org/2000/svg">
<path d="M97.3079 107.538H19.7695C14.4165 107.538 10.0771 103.198 10.0771 97.8455V44.7753C10.2407 41.5229 12.0024 38.5619 14.7828 36.8664L53.552 13.6049C56.6202 11.7652 60.4523 11.7652 63.5205 13.6049L102.29 36.8664C105.203 38.6245 106.989 41.7748 107 45.1776V97.8455C107 103.198 102.661 107.538 97.3079 107.538ZM19.7695 48.7443V97.8455H97.3079V48.7443L58.5387 74.5889L19.7695 48.7443ZM58.5387 21.916L26.147 41.3491L58.5387 62.9436L90.9255 41.3491L58.5387 21.916Z" fill="#2E3A59"/>
</svg>
