<svg width="117" height="118" viewBox="0 0 117 118" fill="none" xmlns="http://www.w3.org/2000/svg">
<path d="M58.4611 107.538C38.8514 107.549 21.1675 95.7418 13.6617 77.6255C6.1558 59.5091 10.3075 38.6549 24.1794 24.7945C36.4271 12.5469 54.2784 7.76363 71.009 12.2466C87.7397 16.7295 100.808 29.7976 105.291 46.5283C109.774 63.2589 104.99 81.1102 92.7428 93.3579C83.6681 102.474 71.3235 107.58 58.4611 107.538ZM19.6919 59.9098C19.9212 81.2388 37.3372 98.3763 58.6672 98.2622C79.9972 98.147 97.2281 80.8233 97.2281 59.493C97.2281 38.1627 79.9972 20.839 58.6672 20.7238C37.3372 20.6097 19.9212 37.7471 19.6919 59.0762V59.9098ZM45.9047 78.4608L39.0765 71.6278L51.628 59.0762L39.0765 46.5247L45.9096 39.6916L58.4611 52.2431L71.0126 39.6916L77.8457 46.5247L65.2942 59.0762L77.8457 71.6278L71.0175 78.4608L58.4611 65.9093L45.9096 78.4608H45.9047Z" fill="#2E3A59"/>
</svg>
