<svg width="118" height="118" viewBox="0 0 118 118" fill="none" xmlns="http://www.w3.org/2000/svg">
<path d="M59.0758 107.538C46.2195 107.549 33.8864 102.447 24.7956 93.3563C15.7047 84.2655 10.6027 71.9324 10.6143 59.0761V58.1068C11.0106 38.6845 22.9613 21.3737 40.982 14.1186C59.0027 6.86345 79.6141 11.0647 93.3575 24.7944C107.229 38.6548 111.381 59.509 103.875 77.6253C96.3694 95.7417 78.6855 107.549 59.0758 107.538ZM59.0758 65.9091L71.6273 78.4607L78.4604 71.6276L65.9089 59.0761L78.4604 46.5245L71.6273 39.6915L59.0758 52.243L46.5243 39.6915L39.6912 46.5245L52.2427 59.0761L39.6912 71.6276L46.5243 78.4607L59.0758 65.914V65.9091Z" fill="#2E3A59"/>
</svg>
