<svg width="117" height="118" viewBox="0 0 117 118" fill="none" xmlns="http://www.w3.org/2000/svg">
<path d="M29.7706 107.538C21.6006 107.536 14.3089 102.411 11.5389 94.7254C8.76881 87.0394 11.1151 78.4417 17.4054 73.2282C23.6957 68.0147 32.5795 67.3048 39.6179 71.4532L71.2245 39.8466C66.2799 31.4459 68.3522 20.6791 76.0618 14.7139C83.7714 8.74879 94.7136 9.44585 101.604 16.3411C108.494 23.2363 109.184 34.179 103.213 41.8844C97.2424 49.5897 86.4742 51.6544 78.077 46.7039L46.4752 78.3056C50.0104 84.2997 50.0612 91.7288 46.6086 97.7708C43.1559 103.813 36.7295 107.54 29.7706 107.538ZM29.7706 78.4607C24.4176 78.4607 20.0783 82.8001 20.0783 88.153C20.0783 93.5059 24.4176 97.8453 29.7706 97.8453C35.1235 97.8453 39.4629 93.5059 39.4629 88.153C39.4629 82.8001 35.1235 78.4607 29.7706 78.4607ZM87.9244 20.3069C82.6294 20.3123 78.3187 24.5659 78.2429 29.8603C78.167 35.1547 82.354 39.5301 87.6466 39.6872C92.9392 39.8443 97.3784 35.7249 97.6167 30.4354V32.3738V29.9992C97.6167 24.6463 93.2773 20.3069 87.9244 20.3069Z" fill="#2E3A59"/>
</svg>
