<svg width="117" height="118" viewBox="0 0 117 118" fill="none" xmlns="http://www.w3.org/2000/svg">
<path d="M92.2182 97.8455C50.8727 97.9041 19.4939 66.1493 19.5381 25.1654C19.5381 22.489 21.7078 20.3071 24.3843 20.3071H37.175C39.5766 20.3071 41.6168 22.0718 41.9695 24.4473C42.8147 30.1409 44.4724 35.6838 46.8921 40.9067L47.3901 41.9816C48.0825 43.4761 47.6132 45.2519 46.2727 46.2092C42.3116 49.038 40.7978 54.732 43.8837 59.175C47.7561 64.7504 52.6375 69.6308 58.2117 73.5015C62.6544 76.5865 68.3475 75.0729 71.1763 71.1125C72.1342 69.7713 73.911 69.3017 75.4064 69.9945L76.4764 70.4901C81.6996 72.9097 87.2429 74.5674 92.9371 75.4125C95.3127 75.7651 97.0765 77.8051 97.0765 80.2068V92.9993C97.0765 95.6758 94.9015 97.8455 92.2251 97.8455L92.2182 97.8455Z" fill="#2E3A59"/>
</svg>
