<svg width="117" height="118" viewBox="0 0 117 118" fill="none" xmlns="http://www.w3.org/2000/svg">
<path d="M42.9035 42.9962C37.7029 47.4152 35.7971 55.4742 40.2877 61.9395C44.4898 67.9896 49.7831 73.2817 55.8318 77.482C62.2973 81.9717 70.3561 80.0653 74.7745 74.8646L74.8237 74.8873C80.4674 77.5017 86.4618 79.2937 92.6146 80.2068V92.9993L92.6093 92.9993L92.5956 92.9993C53.9496 93.0541 24.7272 63.4917 24.7685 25.1706V25.1532H37.5593L37.5601 25.1589C38.4734 31.311 40.2646 37.3003 42.8792 42.9438L42.9035 42.9962ZM92.6093 102.692H97.4607C100.137 102.692 102.307 100.522 102.307 97.8454V76.0268C102.307 73.6251 100.548 71.5857 98.1722 71.2331L94.0327 70.6188C88.7972 69.8418 83.7002 68.3175 78.8976 66.0928L75.2491 64.4027C73.1349 63.4233 70.6229 64.0872 69.2686 65.9833L67.617 68.2957C66.1694 70.3224 63.4057 70.9414 61.36 69.5209C56.2605 65.9797 51.791 61.5111 48.2482 56.4104C46.8272 54.3646 47.4463 51.6005 49.4733 50.1529L51.7847 48.5023C53.6811 47.148 54.3451 44.6358 53.3654 42.5214L51.6735 38.8694C49.4487 34.0672 47.9245 28.9708 47.1473 23.7357L46.5327 19.5955C46.1801 17.2199 44.1407 15.4609 41.7391 15.4609H19.9224C17.2459 15.4609 15.0762 17.6306 15.0762 20.3071V25.1602C15.0291 68.8067 48.5642 102.754 92.6093 102.692Z" fill="#2E3A59"/>
</svg>
