<svg width="117" height="117" viewBox="0 0 117 117" fill="none" xmlns="http://www.w3.org/2000/svg">
<path d="M62.8057 106.614C60.2322 106.621 57.7628 105.599 55.9484 103.774L17.9836 65.8041C15.9802 63.8063 14.9529 61.0309 15.1728 58.2102L17.5959 26.3903C17.9414 21.6042 21.7549 17.8011 26.5419 17.4686L58.3617 15.0455C58.6089 14.9922 58.8609 14.9922 59.108 14.9922C61.6758 14.9988 64.1369 16.0195 65.9557 17.832L103.925 55.7968C105.744 57.6145 106.765 60.0804 106.765 62.6517C106.765 65.2229 105.744 67.6888 103.925 69.5065L69.6581 103.774C67.8448 105.597 65.3774 106.62 62.8057 106.614ZM59.1032 24.6845L27.2591 27.1076L24.8361 58.9516L62.8057 96.9212L97.068 62.6589L59.1032 24.6845ZM42.2434 51.7842C37.6194 51.7851 33.6387 48.5196 32.7357 43.9846C31.8327 39.4496 34.259 34.9083 38.5307 33.138C42.8024 31.3677 47.7297 32.8615 50.2993 36.7058C52.8689 40.5501 52.3651 45.6742 49.0959 48.9443C47.2826 50.768 44.8152 51.7906 42.2434 51.7842Z" fill="#2E3A59"/>
</svg>
