<svg width="117" height="117" viewBox="0 0 117 117" fill="none" xmlns="http://www.w3.org/2000/svg">
<path d="M63.1895 106.614C60.6176 106.621 58.1497 105.598 56.3371 103.774L18.3578 65.8041C16.3538 63.8067 15.3264 61.031 15.547 58.2102L17.9701 26.3903C18.3162 21.6008 22.135 17.7965 26.9258 17.4686L58.7456 15.0455C58.9976 14.9922 59.2448 14.9922 59.4968 14.9922C62.0636 14.9891 64.5253 16.0115 66.3347 17.832L104.314 55.7968C106.132 57.6146 107.154 60.0804 107.154 62.6517C107.154 65.2229 106.132 67.6888 104.314 69.5065L70.042 103.774C68.2287 105.597 65.7613 106.62 63.1895 106.614ZM42.6273 32.3996C38.2407 32.4008 34.4018 35.3482 33.2674 39.5856C32.1331 43.823 33.9862 48.294 37.7856 50.4866C41.5849 52.6792 46.3833 52.0466 49.4846 48.9443L49.5185 48.9153L49.5525 48.8813L49.5137 48.9153C52.2684 46.1363 53.0819 41.9734 51.576 38.3618C50.0701 34.7502 46.5403 32.3984 42.6273 32.3996Z" fill="#2E3A59"/>
</svg>
