<svg width="117" height="117" viewBox="0 0 117 117" fill="none" xmlns="http://www.w3.org/2000/svg">
<path d="M83.0756 107.153H34.6141C29.2612 107.153 24.9218 102.814 24.9218 97.4612V34.4612H15.2295V24.7689H34.6141V19.9228C34.6141 14.5699 38.9535 10.2305 44.3064 10.2305H73.3833C78.7362 10.2305 83.0756 14.5699 83.0756 19.9228V24.7689H102.46V34.4612H92.7679V97.4612C92.7679 102.814 88.4285 107.153 83.0756 107.153ZM34.6141 34.4612V97.4612H83.0756V34.4612H34.6141ZM44.3064 19.9228V24.7689H73.3833V19.9228H44.3064ZM73.3833 87.7689H63.691V44.1535H73.3833V87.7689ZM53.9987 87.7689H44.3064V44.1535H53.9987V87.7689Z" fill="#2E3A59"/>
</svg>
