<svg width="117" height="117" viewBox="0 0 117 117" fill="none" xmlns="http://www.w3.org/2000/svg">
<path d="M98.3355 105.58L56.1449 63.3842H33.9205V53.6919H46.4526L36.7603 43.9996H33.9205C25.8911 43.9996 19.382 50.5087 19.382 58.538C19.382 66.5674 25.8911 73.0765 33.9205 73.0765H48.4589V82.7688H33.9205C21.7157 82.7789 11.4084 73.71 9.86444 61.6033C8.3205 49.4966 16.0219 38.1312 27.8386 35.0778L11.1048 18.3489L17.9621 11.4965L105.193 98.7272L98.3404 105.575L98.3355 105.58ZM97.5795 77.4041L90.6592 70.4887C95.8857 66.8677 98.1529 60.2707 96.2565 54.2019C94.3602 48.1331 88.7402 44.0006 82.382 43.9996H67.8435V34.3073H82.382C92.6559 34.3085 101.812 40.7887 105.23 50.4775C108.648 60.1662 105.584 70.957 97.5844 77.4041H97.5795Z" fill="#2E3A59"/>
</svg>
